<?xml version="1.0" encoding="iso-8859-1"?>
<!-- Generator: Adobe Illustrator 19.0.0, SVG Export Plug-In . SVG Version: 6.00 Build 0)  -->
<svg version="1.1" id="Capa_1" xmlns="http://www.w3.org/2000/svg" xmlns:xlink="http://www.w3.org/1999/xlink" x="0px" y="0px"
	 viewBox="0 0 512 512" style="enable-background:new 0 0 512 512;" xml:space="preserve">
<path style="fill:#3BBC56;" d="M275.414,114.68c11.441-11.235,65.415-58.056,138.297-21.945c3.466,1.717,4.501,6.175,2.127,9.229
	c-14.754,18.98-67.068,74.006-141.644,15.845C274.611,116.764,275.014,115.722,275.414,114.68z"/>
<path style="fill:#30AA44;" d="M413.711,92.735c-1.829-0.906-3.643-1.746-5.447-2.55c-19.783,21.089-63.33,53.35-122.296,15.368
	c-4.869,3.759-8.44,7.051-10.554,9.127c-0.399,1.041-0.803,2.083-1.22,3.128c74.577,58.162,126.891,3.136,141.644-15.845
	C418.212,98.91,417.178,94.453,413.711,92.735z"/>
<path style="fill:#FFA92C;" d="M257.562,165.703c-94.742-12.901-177.868,66.58-177.868,168.716
	c0,102.118,83.108,181.62,177.868,168.716c94.742,12.901,177.868-66.58,177.868-168.716
	C435.43,232.302,352.322,152.8,257.562,165.703z"/>
<path style="fill:#F7991E;" d="M99.696,334.42c0-91.087,66.115-164.152,147.621-169.743
	c-90.407-6.07-167.622,71.309-167.622,169.743c0,98.419,77.198,175.816,167.62,169.743
	C165.798,498.572,99.696,425.492,99.696,334.42z"/>
<path style="fill:#93603E;" d="M258.353,183.461c4.781-38.798,20.656-103.577,72.919-141.44c3.571-2.587,3.827-7.816,0.55-10.766
	l-23.967-21.57c-3.834-3.45-9.837-2.724-12.709,1.561c-14.417,21.505-50.853,85.336-43.485,172.049
	C252.004,187.332,257.857,187.482,258.353,183.461z"/>
<path style="fill:#7F573C;" d="M310.813,21.912c1.539-2.295,3.978-3.559,6.499-3.716l-9.457-8.511
	c-3.834-3.45-9.837-2.724-12.709,1.561c-14.417,21.505-50.853,85.336-43.485,172.049c0.343,4.037,6.196,4.187,6.692,0.166
	c1.705-13.84,4.837-30.99,10.513-49.041C276.557,78.411,299.943,38.128,310.813,21.912z"/>
<path d="M434.164,341.897c-4.122-0.335-7.746,2.742-8.08,6.871c-6.416,79.339-67.982,148.177-152.279,148.177
	c-4.083,0-7.427,3.274-7.497,7.373c-0.07,4.142,3.23,7.556,7.372,7.626c0.821,0.017,1.843,0.043,2.624,0.043
	c41.74,0,81.593-16.742,112.217-47.14c30.306-30.083,48.957-70.879,52.515-114.872C441.369,345.848,438.293,342.23,434.164,341.897z
	"/>
<path d="M238.144,511.961c11.058-0.226,10.854-15.229-0.34-14.997c-0.498,0.012-0.995,0.023-1.495,0.023
	c-82.914,0-150.371-72.928-150.371-162.569c0-91.691,70.619-166.001,156.235-162.432c0.166,3.932,0.415,7.912,0.757,11.943
	c1.106,13.004,20.02,13.346,21.61,0.447c0.461-3.74,1.05-7.83,1.78-12.166c80.405-5.7,149.993,57.627,159.299,142.971
	c0.449,4.117,4.144,7.093,8.269,6.643c4.118-0.449,7.092-4.151,6.643-8.269c-9.995-91.677-84.177-160.434-171.215-156.531
	c1.974-8.699,4.55-18.003,7.892-27.516c21.83,15.129,46.536,24.398,73.012,21.103c37.018-4.607,62.182-32.338,71.284-44.047
	c2.515-3.236,3.433-7.384,2.519-11.38c-0.917-4.004-3.554-7.347-7.238-9.172c-41.745-20.685-83.313-18.331-120.468,3.373
	c9.657-15.328,22.086-29.691,38.099-41.293c3.538-2.563,5.7-6.538,5.932-10.906c0.232-4.38-1.505-8.575-4.765-11.508L311.616,4.109
	c-3.45-3.105-8.072-4.561-12.674-3.986c-4.593,0.571-8.705,3.103-11.281,6.945c-14.274,21.291-44.832,75.485-45.711,149.893
	c-93.689-3.404-171.01,77.499-171.01,177.458C70.938,436.396,150.377,513.997,238.144,511.961z M408.595,98.709
	c-8.727,10.865-30.09,33.268-60.228,37.019c-20.604,2.563-42.075-3.97-63.904-19.435C300.203,102.549,347.352,69.299,408.595,98.709
	z M301.582,15.26l23.455,21.109c-38.484,28.16-57.805,70.349-67.503,105.941C262.417,70.821,299.171,13.089,301.582,15.26z"/>
<path d="M361.992,294.466c0.1-0.49,0.15-0.98,0.15-1.47c0-0.49-0.05-0.98-0.15-1.47c-0.071-0.373-0.18-0.751-0.312-1.117
	c-0.242-0.671-0.589-1.304-1.014-1.877c-0.221-0.298-0.461-0.581-0.723-0.836c-1.39-1.4-3.33-2.2-5.3-2.2c-1.97,0-3.91,0.8-5.3,2.2
	c-0.262,0.255-0.502,0.538-0.724,0.836c-0.429,0.578-0.778,1.219-1.021,1.896c-0.129,0.359-0.235,0.731-0.305,1.097
	c-0.1,0.49-0.15,0.98-0.15,1.47c0,0.49,0.05,0.98,0.15,1.47c0.07,0.365,0.176,0.737,0.304,1.095c0.243,0.679,0.592,1.32,1.022,1.899
	c0.222,0.299,0.461,0.582,0.724,0.836c1.39,1.4,3.33,2.2,5.3,2.2c1.97,0,3.91-0.8,5.3-2.2c0.262-0.255,0.502-0.538,0.723-0.836
	c0.426-0.574,0.773-1.208,1.015-1.88C361.812,295.216,361.921,294.838,361.992,294.466z"/>
<path d="M346.292,337.028c-0.1,0.49-0.15,0.98-0.15,1.47s0.05,0.98,0.15,1.47c0.07,0.365,0.176,0.737,0.304,1.095
	c0.243,0.679,0.592,1.32,1.022,1.899c0.222,0.299,0.461,0.582,0.724,0.836c1.39,1.4,3.33,2.2,5.3,2.2c1.97,0,3.91-0.8,5.3-2.2
	c0.262-0.255,0.502-0.538,0.723-0.836c0.426-0.574,0.773-1.208,1.015-1.88c0.131-0.364,0.24-0.742,0.311-1.114
	c0.1-0.49,0.15-0.98,0.15-1.47s-0.05-0.98-0.15-1.47c-0.071-0.373-0.18-0.751-0.312-1.117c-0.242-0.671-0.589-1.304-1.014-1.877
	c-0.221-0.298-0.461-0.581-0.723-0.836c-1.39-1.4-3.33-2.2-5.3-2.2c-1.97,0-3.91,0.8-5.3,2.2c-0.262,0.255-0.502,0.538-0.724,0.836
	c-0.429,0.578-0.778,1.219-1.021,1.896C346.468,336.29,346.362,336.662,346.292,337.028z"/>
<path d="M360.165,379.534c-0.221-0.298-0.461-0.581-0.723-0.836c-1.39-1.4-3.33-2.2-5.3-2.2c-1.97,0-3.91,0.8-5.3,2.2
	c-0.262,0.255-0.502,0.538-0.724,0.836c-0.429,0.578-0.778,1.219-1.021,1.896c-0.129,0.359-0.235,0.731-0.305,1.097
	c-0.1,0.49-0.15,0.98-0.15,1.47c0,0.49,0.05,0.98,0.15,1.47c0.07,0.365,0.176,0.737,0.304,1.095c0.243,0.679,0.592,1.32,1.022,1.899
	c0.222,0.299,0.461,0.582,0.724,0.836c1.39,1.4,3.33,2.2,5.3,2.2c1.97,0,3.91-0.8,5.3-2.2c0.262-0.255,0.502-0.538,0.723-0.836
	c0.426-0.574,0.773-1.208,1.015-1.88c0.131-0.364,0.24-0.742,0.311-1.114c0.1-0.49,0.15-0.98,0.15-1.47c0-0.49-0.05-0.98-0.15-1.47
	c-0.071-0.373-0.18-0.751-0.312-1.117C360.937,380.741,360.591,380.107,360.165,379.534z"/>
<path d="M393.992,313.121c-0.273-0.659-0.649-1.275-1.101-1.828c-0.235-0.287-0.488-0.559-0.761-0.801
	c-1.454-1.334-3.429-2.042-5.397-1.95c-1.968,0.092-3.868,0.981-5.192,2.444c-0.25,0.267-0.477,0.561-0.684,0.869
	c-0.402,0.598-0.72,1.253-0.931,1.942c-0.112,0.365-0.201,0.742-0.254,1.11c-0.077,0.494-0.105,0.986-0.082,1.476
	c0.023,0.489,0.096,0.977,0.219,1.461c0.087,0.362,0.21,0.728,0.355,1.08c0.274,0.667,0.653,1.291,1.109,1.849
	c0.235,0.288,0.488,0.559,0.762,0.802c1.454,1.333,3.429,2.043,5.397,1.951s3.869-0.982,5.192-2.445
	c0.25-0.267,0.476-0.56,0.684-0.869c0.399-0.593,0.716-1.242,0.927-1.925c0.114-0.37,0.205-0.753,0.259-1.127
	c0.077-0.494,0.104-0.986,0.081-1.475c-0.023-0.49-0.095-0.977-0.218-1.462C394.269,313.854,394.142,313.48,393.992,313.121z"/>
<path d="M384.161,356.414c-0.25,0.267-0.477,0.561-0.684,0.869c-0.402,0.598-0.72,1.253-0.931,1.942
	c-0.112,0.365-0.201,0.742-0.254,1.11c-0.077,0.494-0.105,0.986-0.082,1.476c0.023,0.489,0.096,0.977,0.219,1.461
	c0.087,0.362,0.21,0.728,0.355,1.08c0.274,0.667,0.653,1.291,1.109,1.849c0.235,0.288,0.488,0.56,0.762,0.802
	c1.454,1.334,3.429,2.043,5.397,1.951c1.968-0.092,3.869-0.982,5.192-2.445c0.25-0.267,0.476-0.56,0.684-0.869
	c0.399-0.593,0.716-1.242,0.927-1.925c0.114-0.37,0.205-0.753,0.259-1.128c0.077-0.494,0.104-0.986,0.081-1.475
	c-0.023-0.49-0.095-0.977-0.218-1.462c-0.089-0.369-0.215-0.742-0.364-1.101c-0.273-0.659-0.649-1.275-1.101-1.828
	c-0.235-0.288-0.488-0.559-0.761-0.801c-1.454-1.333-3.429-2.042-5.397-1.95C387.385,354.062,385.485,354.951,384.161,356.414z"/>
<g>
</g>
<g>
</g>
<g>
</g>
<g>
</g>
<g>
</g>
<g>
</g>
<g>
</g>
<g>
</g>
<g>
</g>
<g>
</g>
<g>
</g>
<g>
</g>
<g>
</g>
<g>
</g>
<g>
</g>
</svg>
